<svg fill="none" height="64" viewBox="0 0 64 64" width="64" xmlns="http://www.w3.org/2000/svg" xmlns:xlink="http://www.w3.org/1999/xlink"><clipPath id="a"><rect height="64" rx="10" width="64"/></clipPath><g clip-path="url(#a)"><rect fill="#fefaef" height="64" rx="10" width="64"/><g fill="#363623"><path d="m33.1074 41h-3.3886c-.2896 0-.5503-.1188-.782-.3563-.1738-.1781-.2607-.4453-.2607-.8016v-11.5789c-3.0121-.2376-5.7925-.861-8.3412-1.8705-3.2438-1.247-6.0532-3.1174-8.4281-5.6113-1.4481-1.5439-2.6356-3.2065-3.56241-4.9879-.9268-1.722-1.67983-3.4143-2.25908-5.0769-1.10058-3.20648-1.73776-6.05668-1.91153-8.55061-.11585-2.493926-.17378-3.91903-.17378-4.2753v-21.82189c0-.2969.08689-.5641.26066-.8016.2317-.1781.49237-.2672.78199-.2672h3.38863c.34755 0 .60821.0891.78199.2672.2317.2375.34755.5047.34755.8016v22.00003l.17378 3.1174c.05792 2.07828.5503 4.45344 1.4771 7.12551.4634 1.48448 1.0716 2.96896 1.8246 4.45346.7531 1.4251 1.7378 2.7611 2.9542 4.0081 1.7957 1.9595 3.9679 3.444 6.5166 4.4534 2.6066.9501 5.5319 1.4251 8.7757 1.4251 3.1279 0 5.9663-.475 8.515-1.4251s4.7499-2.3752 6.6035-4.2753c1.2164-1.2469 2.2301-2.6127 3.041-4.0971.811-1.4845 1.4771-2.93932 1.9985-4.36442.9847-2.67207 1.5639-5.04724 1.7377-7.12551.1738-2.018892.2607-3.05803.2607-3.11741v-21.91096c0-.2969.0869-.5641.2606-.8016.2317-.2375.4924-.3563.782-.3563h3.3887c.3475 0 .6082.1188.7819.3563.2317.2375.3476.5047.3476.8016v21.82189c0 .23752-.1159 1.603243-.3476 4.09717-.1737 2.49393-.8688 5.31444-2.0853 8.46154-.6371 1.7814-1.4481 3.5331-2.4328 5.2551-1.0427 1.7813-2.317 3.444-3.8231 4.9878-2.3749 2.4346-5.1553 4.2753-8.3412 5.5223-2.375.95-4.9526 1.5438-7.733 1.7814v11.5789c0 .3563-.1159.6235-.3476.8016-.1738.2375-.4344.3563-.782.3563z"/><path d="m8.74619 96h-3.53638c-.37225 0-.65143-.1232-.83756-.3695-.24817-.1847-.37225-.4618-.37225-.8313v-66.5984c0-.4926.24817-.8621.7445-1.1084.18613-.0616.34123-.0924.46531-.0924.31021 0 .55838.1232.7445.3695l25.21999 25.0321c.2481.2463.5273.3695.8375.3695.3103 0 .5894-.1232.8376-.3695 5.3976-5.2958 13.4631-13.3012 24.1963-24.0161.3722-.3694.8065-.4618 1.3029-.2771.4343.1848.6514.5543.6514 1.1085v65.3976c0 .3694-.0931.6465-.2792.8313-.2482.2463-.5273.3695-.8376.3695h-3.6294c-.3102 0-.5894-.1232-.8376-.3695-.2481-.1848-.3722-.4619-.3722-.8313v-51.1727c0-.4927-.2172-.8621-.6514-1.1085-.4964-.1847-.9307-.0923-1.3029.2771-4.0327 4.0643-10.1128 10.1299-18.2403 18.1968-.2482.1848-.5273.2771-.8376.2771-.3102 0-.5894-.0923-.8375-.2771l-19.264-19.1205c-.3722-.431-.7755-.5234-1.2098-.2771-.4963.1848-.74449.5235-.74449 1.0161v52.4659c0 .3079-.12409.585-.37225.8313-.18613.1847-.46532.2771-.83757.2771z"/></g></g></svg>