<svg width="140" height="60" viewBox="0 0 140 60" fill="none" xmlns="http://www.w3.org/2000/svg">
<path d="M20.1305 54.306H18V47.8965H20.1305C22.1617 47.8965 23.1727 49.3228 23.1727 51.0922C23.1727 53.0331 21.9901 54.306 20.1305 54.306ZM22.7123 51.0922C22.7123 49.4763 21.7825 48.3117 20.1305 48.3117H18.4604V53.8907H20.1305C21.8186 53.8907 22.7123 52.681 22.7123 51.0922Z" fill="#C4C196"/>
<path d="M44.1245 53.8907H47.9341V54.306H43.6641V47.8965H47.8528V48.3117H44.1245V50.8304H47.3834V51.2276H44.1245V53.8907Z" fill="#C4C196"/>
<path d="M67.707 54.306L70.4333 47.8965H70.8305L73.5387 54.306H73.0512L72.1575 52.1935H69.0972L68.2035 54.306H67.707ZM69.2055 51.8144H72.0311L70.6319 48.4562L69.2055 51.8144Z" fill="#C4C196"/>
<path d="M98.0285 54.306H93.7404V47.8965H94.2008V53.8907H98.0285V54.306Z" fill="#C4C196"/>
<path d="M122.177 48.6006L121.943 48.9617C121.527 48.5013 120.95 48.2666 120.182 48.2666C118.928 48.2666 118.386 48.7811 118.386 49.5846C118.386 50.4061 118.946 50.6137 120.264 50.8936C121.645 51.1825 122.52 51.5255 122.52 52.663C122.52 53.7914 121.591 54.3601 120.227 54.3601C119.225 54.3601 118.386 54.0442 117.691 53.4032L117.935 53.0331C118.467 53.5928 119.271 53.9539 120.246 53.9539C121.356 53.9539 122.033 53.5386 122.033 52.7171C122.033 51.8685 121.374 51.5797 120.02 51.2908C118.657 51.0019 117.916 50.695 117.916 49.6478C117.916 48.4923 118.837 47.8513 120.182 47.8513C121.013 47.8513 121.654 48.1041 122.177 48.6006Z" fill="#C4C196"/>
<path d="M20.9269 41H18.8934C18.7196 41 18.5632 40.9305 18.4241 40.7914C18.3198 40.6871 18.2677 40.5307 18.2677 40.3222V33.5437C16.4601 33.4046 14.7916 33.0396 13.262 32.4487C11.3154 31.7187 9.62948 30.6237 8.20426 29.1637C7.33523 28.2599 6.62262 27.2866 6.06643 26.2438C5.51025 25.2357 5.05835 24.245 4.71074 23.2717C4.05027 21.3946 3.6679 19.726 3.56361 18.266C3.49409 16.806 3.45933 15.9718 3.45933 15.7632V2.98838C3.45933 2.81457 3.51147 2.65814 3.61575 2.5191C3.7548 2.41481 3.91123 2.36267 4.08503 2.36267H6.11858C6.32714 2.36267 6.48357 2.41481 6.58786 2.5191C6.7269 2.65814 6.79642 2.81457 6.79642 2.98838V15.8675L6.90071 17.6925C6.93547 18.9091 7.23094 20.2996 7.78712 21.8638C8.06522 22.7329 8.43021 23.6019 8.88211 24.4709C9.33401 25.3052 9.92495 26.0873 10.6549 26.8173C11.7325 27.9645 13.0361 28.8335 14.5656 29.4244C16.1299 29.9806 17.8853 30.2587 19.832 30.2587C21.7091 30.2587 23.4124 29.9806 24.9419 29.4244C26.4714 28.8683 27.7923 28.034 28.9047 26.9216C29.6347 26.1916 30.243 25.3921 30.7297 24.5231C31.2163 23.654 31.6161 22.8024 31.9289 21.9681C32.5199 20.4039 32.8675 19.0134 32.9718 17.7967C33.0761 16.6149 33.1282 16.0065 33.1282 15.9718V3.1448C33.1282 2.971 33.1803 2.81457 33.2846 2.67552C33.4237 2.53648 33.5801 2.46696 33.7539 2.46696H35.7875C35.996 2.46696 36.1525 2.53648 36.2567 2.67552C36.3958 2.81457 36.4653 2.971 36.4653 3.1448V15.9196C36.4653 16.0587 36.3958 16.8582 36.2567 18.3182C36.1525 19.7781 35.7353 21.4293 35.0053 23.2717C34.6229 24.3145 34.1363 25.34 33.5453 26.3481C32.9196 27.3909 32.1549 28.3642 31.2511 29.268C29.8259 30.6932 28.1573 31.7708 26.2454 32.5008C24.8202 33.057 23.2733 33.4046 21.6048 33.5437V40.3222C21.6048 40.5307 21.5353 40.6871 21.3962 40.7914C21.2919 40.9305 21.1355 41 20.9269 41ZM41.9277 41.1043H39.9463C39.7377 41.1043 39.5813 41.0348 39.477 40.8957C39.338 40.7914 39.2685 40.635 39.2685 40.4264V2.83195C39.2685 2.55386 39.4075 2.34529 39.6856 2.20625C39.7899 2.17148 39.8768 2.1541 39.9463 2.1541C40.1201 2.1541 40.2592 2.22363 40.3635 2.36267L54.494 16.4932C54.633 16.6322 54.7894 16.7018 54.9633 16.7018C55.1371 16.7018 55.2935 16.6322 55.4325 16.4932C58.4568 13.5037 62.9758 8.98472 68.9895 2.93624C69.1981 2.72767 69.4414 2.67552 69.7195 2.77981C69.9628 2.88409 70.0845 3.09266 70.0845 3.40551V40.3222C70.0845 40.5307 70.0323 40.6871 69.928 40.7914C69.789 40.9305 69.6326 41 69.4588 41H67.4252C67.2514 41 67.095 40.9305 66.9559 40.7914C66.8169 40.6871 66.7474 40.5307 66.7474 40.3222V11.4354C66.7474 11.1573 66.6257 10.9487 66.3824 10.8097C66.1043 10.7054 65.861 10.7576 65.6524 10.9661C63.3929 13.2604 59.9863 16.6844 55.4325 21.2381C55.2935 21.3424 55.1371 21.3946 54.9633 21.3946C54.7894 21.3946 54.633 21.3424 54.494 21.2381L43.7005 10.4447C43.492 10.2014 43.266 10.1492 43.0227 10.2883C42.7446 10.3926 42.6056 10.5837 42.6056 10.8618V40.4786C42.6056 40.6524 42.536 40.8088 42.397 40.9479C42.2927 41.0521 42.1363 41.1043 41.9277 41.1043ZM101.774 19.5174V40.3743C101.774 40.5481 101.705 40.6871 101.566 40.7914C101.462 40.9305 101.322 41 101.149 41H99.1673C98.9935 41 98.8544 40.9305 98.7501 40.7914C98.6111 40.6871 98.5416 40.5481 98.5416 40.3743V32.8137H76.329V40.27C76.329 40.4438 76.2769 40.5829 76.1726 40.6871C76.0335 40.8262 75.8771 40.8957 75.7033 40.8957H73.7741C73.6002 40.8957 73.4612 40.8262 73.3569 40.6871C73.2179 40.5829 73.1483 40.4438 73.1483 40.27V19.361C73.1483 19.2915 73.1657 19.0308 73.2005 18.5789C73.2005 18.127 73.2526 17.536 73.3569 16.806C73.5655 15.4851 74 13.8513 74.6605 11.9047C75.3557 9.99281 76.5028 8.23735 78.1019 6.63833C79.3533 5.42168 80.7959 4.44836 82.4297 3.71837C84.0634 2.98838 85.871 2.62338 87.8524 2.62338C89.8338 2.62338 91.5893 3.00576 93.1188 3.77051C94.6483 4.57002 96.0214 5.5781 97.238 6.79475C98.0375 7.62903 98.7154 8.53283 99.2716 9.50615C99.793 10.4447 100.228 11.4006 100.575 12.374C101.201 14.1468 101.548 15.7284 101.618 17.1189C101.722 18.5094 101.774 19.3089 101.774 19.5174ZM98.5416 19.4653C98.5416 19.4305 98.5242 18.8222 98.4894 17.6403C98.4199 16.4932 98.1418 15.1723 97.6552 13.6775C97.3771 12.878 97.0121 12.0785 96.5602 11.279C96.1083 10.4447 95.5521 9.67995 94.8916 8.98472C93.9878 8.04617 92.945 7.28141 91.7631 6.69047C90.5464 6.09953 89.156 5.80405 87.5917 5.80405C86.1317 5.83881 84.7934 6.13429 83.5768 6.69047C82.3254 7.28141 81.2478 8.02878 80.344 8.93258C79.6487 9.62781 79.0752 10.3926 78.6233 11.2268C78.1366 12.0263 77.7542 12.8259 77.4761 13.6254C76.92 15.1201 76.5897 16.4411 76.4854 17.5882C76.3812 18.7353 76.329 19.3262 76.329 19.361V29.8937H98.5416V19.4653ZM120.898 41H118.864C118.691 41 118.534 40.9305 118.395 40.7914C118.291 40.6871 118.239 40.5307 118.239 40.3222V33.5437C116.431 33.4046 114.763 33.0396 113.233 32.4487C111.286 31.7187 109.601 30.6237 108.175 29.1637C107.306 28.2599 106.594 27.2866 106.038 26.2438C105.481 25.2357 105.029 24.245 104.682 23.2717C104.021 21.3946 103.639 19.726 103.535 18.266C103.465 16.806 103.43 15.9718 103.43 15.7632V2.98838C103.43 2.81457 103.483 2.65814 103.587 2.5191C103.726 2.41481 103.882 2.36267 104.056 2.36267H106.09C106.298 2.36267 106.455 2.41481 106.559 2.5191C106.698 2.65814 106.768 2.81457 106.768 2.98838V15.8675L106.872 17.6925C106.907 18.9091 107.202 20.2996 107.758 21.8638C108.036 22.7329 108.401 23.6019 108.853 24.4709C109.305 25.3052 109.896 26.0873 110.626 26.8173C111.704 27.9645 113.007 28.8335 114.537 29.4244C116.101 29.9806 117.856 30.2587 119.803 30.2587C121.68 30.2587 123.383 29.9806 124.913 29.4244C126.442 28.8683 127.763 28.034 128.876 26.9216C129.606 26.1916 130.214 25.3921 130.701 24.5231C131.187 23.654 131.587 22.8024 131.9 21.9681C132.491 20.4039 132.839 19.0134 132.943 17.7967C133.047 16.6149 133.099 16.0065 133.099 15.9718V3.1448C133.099 2.971 133.151 2.81457 133.256 2.67552C133.395 2.53648 133.551 2.46696 133.725 2.46696H135.759C135.967 2.46696 136.124 2.53648 136.228 2.67552C136.367 2.81457 136.436 2.971 136.436 3.1448V15.9196C136.436 16.0587 136.367 16.8582 136.228 18.3182C136.124 19.7781 135.706 21.4293 134.976 23.2717C134.594 24.3145 134.107 25.34 133.516 26.3481C132.891 27.3909 132.126 28.3642 131.222 29.268C129.797 30.6932 128.128 31.7708 126.217 32.5008C124.791 33.057 123.244 33.4046 121.576 33.5437V40.3222C121.576 40.5307 121.506 40.6871 121.367 40.7914C121.263 40.9305 121.107 41 120.898 41Z" fill="#363623"/>
</svg>
